<?xml version="1.0" encoding="utf-8"?>
<svg viewBox="102.926 102.926 294.148 294.148" xmlns="http://www.w3.org/2000/svg">
  <g transform="matrix(1, 0, 0, 1, 0, -3.552713678800501e-15)">
    <ellipse style="stroke: rgb(0, 0, 0); fill: rgb(255, 255, 255); stroke-width: 0px;" cx="250" cy="250" rx="147.074" ry="147.074"/>
    <path d="M 346 170 L 154 170 C 145.164 170 138 177.164 138 186 L 138 314 C 138 322.837 145.164 330 154 330 L 346 330 C 354.837 330 362 322.837 362 314 L 362 186 C 362 177.164 354.837 170 346 170 Z M 346 314 L 154 314 L 154 186 L 346 186 L 346 314 Z M 330 250 C 330 254.419 326.418 258 322 258 L 178 258 C 171.842 258 167.993 251.334 171.072 246 C 172.501 243.525 175.142 242 178 242 L 322 242 C 326.418 242 330 245.582 330 250 Z M 330 218 C 330 222.419 326.418 226 322 226 L 178 226 C 171.842 226 167.993 219.334 171.072 214 C 172.501 211.525 175.142 210 178 210 L 322 210 C 326.418 210 330 213.582 330 218 Z M 194 282 C 194 286.419 190.418 290 186 290 L 178 290 C 171.842 290 167.993 283.334 171.072 278 C 172.501 275.525 175.142 274 178 274 L 186 274 C 190.418 274 194 277.582 194 282 Z M 290 282 C 290 286.419 286.418 290 282 290 L 218 290 C 211.842 290 207.993 283.334 211.072 278 C 212.501 275.525 215.142 274 218 274 L 282 274 C 286.418 274 290 277.582 290 282 Z M 330 282 C 330 286.419 326.418 290 322 290 L 314 290 C 307.842 290 303.993 283.334 307.072 278 C 308.501 275.525 311.142 274 314 274 L 322 274 C 326.418 274 330 277.582 330 282 Z"/>
  </g>
</svg>